<?xml version="1.0" encoding="utf-8"?>
<!-- Generator: Adobe Illustrator 24.1.2, SVG Export Plug-In . SVG Version: 6.00 Build 0)  -->
<svg version="1.1" xmlns="http://www.w3.org/2000/svg" xmlns:xlink="http://www.w3.org/1999/xlink" x="0px" y="0px"
	 viewBox="0 0 465 606" style="enable-background:new 0 0 465 606;" xml:space="preserve">
<style type="text/css">
	.st0{fill:#FFFFFF;}
</style>
<g id="background">
	<rect x="957" y="27.91" class="st0" width="475" height="510"/>
</g>
<g id="Objects">
	<g>
		<g>
			<path class="st0" d="M1011.72,151.03l41.4,338.09c2.43,19.86,19.3,34.79,39.31,34.79h205.55c20.01,0,36.88-14.93,39.31-34.79
				l41.4-338.09H1011.72z M1125.44,469.84c-0.32,0.03-0.64,0.04-0.96,0.04c-6.04,0-11.17-4.64-11.66-10.77l-19.57-241.39
				c-0.52-6.45,4.28-12.1,10.73-12.62c6.44-0.52,12.09,4.28,12.62,10.73l19.57,241.38C1136.69,463.66,1131.89,469.31,1125.44,469.84
				z M1206.92,458.16c0,6.82-5.83,12.28-12.79,11.66c-6.1-0.54-10.64-5.9-10.64-12.02V217.1c0-5.8,4.07-10.98,9.79-11.89
				c7.32-1.16,13.63,4.46,13.63,11.56V458.16z M1297.16,217.72l-19.57,241.39c-0.49,6.12-5.62,10.77-11.66,10.77
				c-0.32,0-0.64-0.01-0.96-0.04c-6.45-0.52-11.25-6.17-10.73-12.62l19.57-241.38c0.52-6.45,6.18-11.25,12.62-10.73
				C1292.88,205.62,1297.68,211.27,1297.16,217.72z"/>
			<path class="st0" d="M1394.24,96h-106.5c-4.79,0-9.06-3.03-10.63-7.56l-8.38-24.06c-4.29-12.31-15.93-20.59-28.97-20.59h-89.08
				c-13.05,0-24.68,8.26-28.97,20.59l-8.38,24.06c-1.58,4.52-5.84,7.56-10.64,7.56h-106.5c-5.39,0-9.76,4.37-9.76,9.76v18.76
				c0,5.39,4.37,9.76,9.76,9.76h398.06c5.39,0,9.76-4.37,9.76-9.76v-18.76C1404,100.37,1399.63,96,1394.24,96z M1147.61,73.62
				c0.68-1.94,2.5-3.24,4.56-3.24h86.07c2.05,0,3.88,1.3,4.56,3.24l7.8,22.38h-110.78L1147.61,73.62z"/>
		</g>
	</g>
</g>
</svg>
